<svg width="242" height="32" viewBox="0 0 242 32" fill="none" xmlns="http://www.w3.org/2000/svg">
<path d="M79.7998 3.70117C82.9998 3.70117 85.6998 4.80117 87.7998 6.90117C89.8998 9.00117 90.9998 11.7012 90.9998 14.8012C90.9998 17.9012 89.8998 20.5012 87.7998 22.7012C85.5998 24.9012 82.9998 25.9012 79.8998 25.9012C76.7998 25.9012 74.0998 24.8012 71.9998 22.7012C69.8998 20.6012 68.7998 18.0012 68.7998 14.9012C68.7998 12.9012 69.2998 11.0012 70.2998 9.20117C71.2998 7.50117 72.5998 6.10117 74.2998 5.10117C75.9998 4.20117 77.8998 3.70117 79.7998 3.70117ZM79.8998 5.70117C78.2998 5.70117 76.8998 6.10117 75.3998 6.90117C73.9998 7.70117 72.8998 8.80117 72.0998 10.2012C71.2998 11.6012 70.8998 13.1012 70.8998 14.8012C70.8998 17.3012 71.7998 19.4012 73.4998 21.2012C75.1998 23.0012 77.2998 23.8012 79.7998 23.8012C81.3998 23.8012 82.9998 23.4012 84.3998 22.6012C85.7998 21.8012 86.8998 20.7012 87.6998 19.3012C88.4998 17.9012 88.8998 16.4012 88.8998 14.7012C88.8998 13.0012 88.4998 11.5012 87.6998 10.1012C86.8998 8.70117 85.7998 7.70117 84.3998 6.80117C82.9998 6.20117 81.4998 5.70117 79.8998 5.70117Z" fill="#1E6CEB"/>
<path d="M95.0996 9.70078H97.0996V12.6008C97.8996 11.5008 98.7996 10.7008 99.7996 10.1008C100.8 9.50078 102 9.30078 103.3 9.30078C105.5 9.30078 107.4 10.1008 109 11.7008C110.6 13.3008 111.4 15.2008 111.4 17.5008C111.4 19.8008 110.6 21.8008 109.1 23.4008C107.5 25.0008 105.6 25.8008 103.4 25.8008C102.2 25.8008 101 25.5008 99.9996 25.0008C98.9996 24.5008 97.9996 23.7008 97.1996 22.7008V31.1008H95.1996V9.70078H95.0996ZM103.1 11.3008C101.4 11.3008 99.8996 11.9008 98.6996 13.1008C97.4996 14.3008 96.8996 15.8008 96.8996 17.6008C96.8996 18.8008 97.1996 19.9008 97.6996 20.8008C98.1996 21.7008 98.9996 22.5008 99.9996 23.1008C101 23.7008 102 23.9008 103.1 23.9008C104.2 23.9008 105.2 23.6008 106.1 23.1008C107.1 22.5008 107.8 21.8008 108.4 20.8008C109 19.8008 109.2 18.7008 109.2 17.6008C109.2 16.5008 108.9 15.4008 108.4 14.4008C107.8 13.4008 107.1 12.6008 106.1 12.1008C105.3 11.5008 104.2 11.3008 103.1 11.3008Z" fill="#1E6CEB"/>
<path d="M116.9 3.90039H118.9V9.70039H122.1V11.4004H118.9V25.3004H116.9V11.4004H114.2V9.70039H116.9V3.90039Z" fill="#1E6CEB"/>
<path d="M125.8 3.30078C126.3 3.30078 126.6 3.50078 127 3.80078C127.3 4.10078 127.5 4.50078 127.5 5.00078C127.5 5.50078 127.3 5.80078 127 6.20078C126.7 6.50078 126.3 6.70078 125.8 6.70078C125.4 6.70078 125 6.50078 124.6 6.20078C124.3 5.90078 124.1 5.50078 124.1 5.00078C124.1 4.50078 124.3 4.10078 124.6 3.80078C125 3.50078 125.3 3.30078 125.8 3.30078ZM124.8 9.70078H126.8V25.3008H124.8V9.70078Z" fill="#1E6CEB"/>
<path d="M131 9.70117H133V12.4012C133.7 11.4012 134.4 10.7012 135.2 10.2012C136.2 9.60117 137.3 9.30117 138.4 9.30117C139.2 9.30117 139.9 9.40117 140.6 9.70117C141.3 10.0012 141.8 10.4012 142.3 10.9012C142.7 11.4012 143.1 12.1012 143.4 13.0012C144.1 11.8012 144.9 10.8012 145.9 10.2012C146.9 9.60117 148 9.20117 149.1 9.20117C150.2 9.20117 151.1 9.50117 152 10.0012C152.8 10.5012 153.4 11.3012 153.8 12.3012C154.2 13.3012 154.4 14.7012 154.4 16.7012V25.2012H152.3V16.7012C152.3 15.0012 152.2 13.9012 151.9 13.2012C151.7 12.6012 151.3 12.1012 150.7 11.7012C150.1 11.3012 149.4 11.1012 148.6 11.1012C147.6 11.1012 146.7 11.4012 145.9 12.0012C145.1 12.6012 144.5 13.3012 144.1 14.3012C143.7 15.3012 143.5 16.9012 143.5 19.1012V25.2012H141.5V17.2012C141.5 15.3012 141.4 14.0012 141.1 13.4012C140.9 12.7012 140.5 12.2012 139.9 11.8012C139.3 11.4012 138.6 11.2012 137.8 11.2012C136.9 11.2012 136 11.5012 135.2 12.0012C134.4 12.6012 133.8 13.3012 133.4 14.3012C133 15.2012 132.8 16.7012 132.8 18.7012V25.3012H130.8V9.70117H131Z" fill="#1E6CEB"/>
<path d="M159.3 3.30078C159.8 3.30078 160.1 3.50078 160.5 3.80078C160.8 4.10078 161 4.50078 161 5.00078C161 5.50078 160.8 5.80078 160.5 6.20078C160.2 6.50078 159.8 6.70078 159.3 6.70078C158.9 6.70078 158.5 6.50078 158.1 6.20078C157.8 5.90078 157.6 5.50078 157.6 5.00078C157.6 4.50078 157.8 4.10078 158.1 3.80078C158.5 3.50078 158.9 3.30078 159.3 3.30078ZM158.3 9.70078H160.3V25.3008H158.3V9.70078Z" fill="#1E6CEB"/>
<path d="M163.2 9.70117H174.7L165.8 23.6012H174.4V25.4012H162.4L171.2 11.5012H163.2V9.70117Z" fill="#1E6CEB"/>
<path d="M190.2 20.2012L191.9 21.1012C191.3 22.2012 190.7 23.1012 190 23.7012C189.3 24.4012 188.5 24.9012 187.5 25.2012C186.6 25.5012 185.6 25.7012 184.4 25.7012C181.8 25.7012 179.9 24.9012 178.4 23.2012C177 21.5012 176.2 19.6012 176.2 17.5012C176.2 15.5012 176.8 13.7012 178 12.2012C179.5 10.2012 181.6 9.20117 184.2 9.20117C186.9 9.20117 189 10.2012 190.6 12.2012C191.7 13.6012 192.3 15.4012 192.3 17.5012H178.2C178.2 19.3012 178.8 20.8012 179.9 22.0012C181 23.2012 182.4 23.7012 184.1 23.7012C184.9 23.7012 185.7 23.6012 186.4 23.3012C187.1 23.0012 187.8 22.7012 188.3 22.2012C189 21.9012 189.6 21.2012 190.2 20.2012ZM190.2 16.0012C189.9 14.9012 189.5 14.1012 189 13.4012C188.5 12.8012 187.8 12.2012 187 11.8012C186.2 11.4012 185.3 11.2012 184.3 11.2012C182.8 11.2012 181.4 11.7012 180.3 12.7012C179.5 13.4012 178.9 14.5012 178.5 15.9012H190.2V16.0012Z" fill="#1E6CEB"/>
<path d="M198.4 22.2012C198.9 22.2012 199.3 22.4012 199.7 22.7012C200 23.0012 200.2 23.5012 200.2 24.0012C200.2 24.5012 200 24.9012 199.7 25.3012C199.4 25.6012 198.9 25.8012 198.4 25.8012C197.9 25.8012 197.5 25.6012 197.1 25.3012C196.8 24.9012 196.6 24.5012 196.6 24.0012C196.6 23.5012 196.8 23.1012 197.1 22.7012C197.5 22.4012 197.9 22.2012 198.4 22.2012Z" fill="#1E6CEB"/>
<path d="M213.3 4.20117L223.2 25.4012H220.9L217.6 18.4012H208.5L205.2 25.4012H202.8L212.8 4.20117H213.3ZM213 8.70117L209.4 16.4012H216.6L213 8.70117Z" fill="#1E6CEB"/>
<path d="M241.7 3.70117V25.4012H239.7V22.7012C238.9 23.7012 237.9 24.5012 236.9 25.0012C235.9 25.5012 234.7 25.8012 233.5 25.8012C231.3 25.8012 229.4 25.0012 227.8 23.4012C226.2 21.8012 225.4 19.8012 225.4 17.5012C225.4 15.2012 226.2 13.3012 227.8 11.7012C229.4 10.1012 231.3 9.30117 233.5 9.30117C234.8 9.30117 235.9 9.60117 237 10.1012C238.1 10.6012 239 11.5012 239.7 12.6012V3.70117H241.7ZM233.7 11.3012C232.6 11.3012 231.5 11.6012 230.6 12.1012C229.7 12.6012 228.9 13.4012 228.3 14.4012C227.7 15.4012 227.5 16.4012 227.5 17.6012C227.5 18.7012 227.8 19.8012 228.3 20.8012C228.9 21.8012 229.6 22.6012 230.6 23.1012C231.6 23.7012 232.6 23.9012 233.7 23.9012C234.8 23.9012 235.8 23.6012 236.8 23.1012C237.8 22.6012 238.5 21.8012 239.1 20.8012C239.6 19.9012 239.9 18.8012 239.9 17.6012C239.9 15.8012 239.3 14.3012 238.1 13.1012C236.9 11.9012 235.4 11.3012 233.7 11.3012Z" fill="#1E6CEB"/>
<path d="M56.6576 5.16715C53.866 2.37715 50.0406 0.827148 46.1118 0.827148C42.183 0.827148 38.3576 2.37715 35.566 5.16715L28.4321 12.2971L30.6033 14.4671L37.7372 7.33715C40.0118 5.06382 42.9067 3.82382 46.1118 3.82382C49.3169 3.82382 52.2118 5.06382 54.4864 7.33715C56.7609 9.61048 58.0016 12.5038 58.0016 15.7071C58.0016 18.9105 56.7609 21.8038 54.4864 24.0771C52.2118 26.3505 49.3169 27.5905 46.1118 27.5905C42.9067 27.5905 40.0118 26.3505 37.7372 24.0771L33.8084 20.1505L31.6372 22.3205L35.566 26.2471C38.3576 29.0371 42.183 30.5871 46.1118 30.5871C50.0406 30.5871 53.866 29.0371 56.6576 26.2471C59.4491 23.4571 60.9999 19.6338 60.9999 15.7071C60.9999 11.7805 59.4491 7.95715 56.6576 5.16715Z" fill="#1E6CEB"/>
<path d="M30.5 16.8438L23.2627 24.0771C20.9881 26.3505 18.0932 27.5905 14.8881 27.5905C11.6831 27.5905 8.78814 26.3505 6.51356 24.0771C4.23898 21.8038 2.99831 18.9105 2.99831 15.7071C2.99831 12.5038 4.23898 9.61048 6.51356 7.33715C8.78814 5.06382 11.6831 3.82382 14.8881 3.82382C18.0932 3.82382 20.9881 5.06382 23.2627 7.33715L27.0881 11.1605L29.2593 8.99048L25.4339 5.16715C22.6424 2.37715 18.8169 0.827148 14.8881 0.827148C10.8559 0.827148 7.1339 2.37715 4.34237 5.16715C1.55085 7.95715 0 11.7805 0 15.7071C0 19.6338 1.55085 23.4571 4.34237 26.2471C7.1339 29.0371 10.9593 30.5871 14.8881 30.5871C18.9203 30.5871 22.6424 29.0371 25.4339 26.2471L32.6712 19.0138L30.5 16.8438Z" fill="#1E6CEB"/>
<path d="M27.0883 17.8767L29.2594 15.7067L22.1255 8.57675C20.2645 6.71675 17.6798 5.58008 14.9916 5.58008C12.3035 5.58008 9.71876 6.61341 7.85774 8.57675C3.92893 12.5034 3.92893 18.9101 7.85774 22.8367C9.71876 24.6967 12.3035 25.8334 14.9916 25.8334C17.6798 25.8334 20.2645 24.8001 22.1255 22.8367L25.951 19.0134L23.7798 16.8434L19.9544 20.6667C18.6103 22.0101 16.8527 22.7334 14.9916 22.7334C13.1306 22.7334 11.373 22.0101 10.0289 20.6667C7.34079 17.9801 7.34079 13.4334 10.0289 10.7467C11.373 9.40341 13.1306 8.68008 14.9916 8.68008C16.8527 8.68008 18.6103 9.40341 19.9544 10.7467L27.0883 17.8767Z" fill="#1E6CEB"/>
<path d="M53.0388 8.68044C51.1778 6.82044 48.593 5.78711 46.0083 5.78711C43.3201 5.78711 40.8388 6.82044 38.9778 8.68044L35.2557 12.4004L37.4269 14.5704L41.149 10.8504C43.8371 8.16378 48.1795 8.16378 50.8676 10.8504C53.5557 13.5371 53.5557 17.8771 50.8676 20.5638C49.5235 21.9071 47.8693 22.6304 46.0083 22.6304C44.1473 22.6304 42.3896 21.9071 41.149 20.6671L34.1185 13.5371L31.9473 15.7071L38.9778 22.8371C40.8388 24.6971 43.4235 25.7304 46.0083 25.7304C48.6964 25.7304 51.1778 24.6971 53.0388 22.8371C54.8998 20.9771 55.9337 18.3938 55.9337 15.8104C55.9337 13.2271 54.8998 10.5404 53.0388 8.68044Z" fill="#1E6CEB"/>
</svg>
