<svg width="242" height="32" viewBox="0 0 242 32" fill="none" xmlns="http://www.w3.org/2000/svg">
<path d="M79.7998 3.69971C82.9998 3.69971 85.6998 4.79971 87.7998 6.89971C89.8998 8.99971 90.9998 11.6997 90.9998 14.7997C90.9998 17.8997 89.8998 20.4997 87.7998 22.6997C85.5998 24.8997 82.9998 25.8997 79.8998 25.8997C76.7998 25.8997 74.0998 24.7997 71.9998 22.6997C69.8998 20.5997 68.7998 17.9997 68.7998 14.8997C68.7998 12.8997 69.2998 10.9997 70.2998 9.19971C71.2998 7.49971 72.5998 6.09971 74.2998 5.09971C75.9998 4.19971 77.8998 3.69971 79.7998 3.69971ZM79.8998 5.69971C78.2998 5.69971 76.8998 6.09971 75.3998 6.89971C73.9998 7.69971 72.8998 8.79971 72.0998 10.1997C71.2998 11.5997 70.8998 13.0997 70.8998 14.7997C70.8998 17.2997 71.7998 19.3997 73.4998 21.1997C75.1998 22.9997 77.2998 23.7997 79.7998 23.7997C81.3998 23.7997 82.9998 23.3997 84.3998 22.5997C85.7998 21.7997 86.8998 20.6997 87.6998 19.2997C88.4998 17.8997 88.8998 16.3997 88.8998 14.6997C88.8998 12.9997 88.4998 11.4997 87.6998 10.0997C86.8998 8.69971 85.7998 7.69971 84.3998 6.79971C82.9998 6.19971 81.4998 5.69971 79.8998 5.69971Z" fill="white"/>
<path d="M95.0996 9.6998H97.0996V12.5998C97.8996 11.4998 98.7996 10.6998 99.7996 10.0998C100.8 9.4998 102 9.2998 103.3 9.2998C105.5 9.2998 107.4 10.0998 109 11.6998C110.6 13.2998 111.4 15.1998 111.4 17.4998C111.4 19.7998 110.6 21.7998 109.1 23.3998C107.5 24.9998 105.6 25.7998 103.4 25.7998C102.2 25.7998 101 25.4998 99.9996 24.9998C98.9996 24.4998 97.9996 23.6998 97.1996 22.6998V31.0998H95.1996V9.6998H95.0996ZM103.1 11.2998C101.4 11.2998 99.8996 11.8998 98.6996 13.0998C97.4996 14.2998 96.8996 15.7998 96.8996 17.5998C96.8996 18.7998 97.1996 19.8998 97.6996 20.7998C98.1996 21.6998 98.9996 22.4998 99.9996 23.0998C101 23.6998 102 23.8998 103.1 23.8998C104.2 23.8998 105.2 23.5998 106.1 23.0998C107.1 22.4998 107.8 21.7998 108.4 20.7998C109 19.7998 109.2 18.6998 109.2 17.5998C109.2 16.4998 108.9 15.3998 108.4 14.3998C107.8 13.3998 107.1 12.5998 106.1 12.0998C105.3 11.4998 104.2 11.2998 103.1 11.2998Z" fill="white"/>
<path d="M116.9 3.8999H118.9V9.6999H122.1V11.3999H118.9V25.2999H116.9V11.3999H114.2V9.6999H116.9V3.8999Z" fill="white"/>
<path d="M125.8 3.2998C126.3 3.2998 126.6 3.4998 127 3.7998C127.3 4.0998 127.5 4.4998 127.5 4.9998C127.5 5.4998 127.3 5.7998 127 6.1998C126.7 6.4998 126.3 6.6998 125.8 6.6998C125.4 6.6998 125 6.4998 124.6 6.1998C124.3 5.8998 124.1 5.4998 124.1 4.9998C124.1 4.4998 124.3 4.0998 124.6 3.7998C125 3.4998 125.3 3.2998 125.8 3.2998ZM124.8 9.6998H126.8V25.2998H124.8V9.6998Z" fill="white"/>
<path d="M131 9.69971H133V12.3997C133.7 11.3997 134.4 10.6997 135.2 10.1997C136.2 9.59971 137.3 9.29971 138.4 9.29971C139.2 9.29971 139.9 9.39971 140.6 9.69971C141.3 9.99971 141.8 10.3997 142.3 10.8997C142.7 11.3997 143.1 12.0997 143.4 12.9997C144.1 11.7997 144.9 10.7997 145.9 10.1997C146.9 9.59971 148 9.19971 149.1 9.19971C150.2 9.19971 151.1 9.49971 152 9.99971C152.8 10.4997 153.4 11.2997 153.8 12.2997C154.2 13.2997 154.4 14.6997 154.4 16.6997V25.1997H152.3V16.6997C152.3 14.9997 152.2 13.8997 151.9 13.1997C151.7 12.5997 151.3 12.0997 150.7 11.6997C150.1 11.2997 149.4 11.0997 148.6 11.0997C147.6 11.0997 146.7 11.3997 145.9 11.9997C145.1 12.5997 144.5 13.2997 144.1 14.2997C143.7 15.2997 143.5 16.8997 143.5 19.0997V25.1997H141.5V17.1997C141.5 15.2997 141.4 13.9997 141.1 13.3997C140.9 12.6997 140.5 12.1997 139.9 11.7997C139.3 11.3997 138.6 11.1997 137.8 11.1997C136.9 11.1997 136 11.4997 135.2 11.9997C134.4 12.5997 133.8 13.2997 133.4 14.2997C133 15.1997 132.8 16.6997 132.8 18.6997V25.2997H130.8V9.69971H131Z" fill="white"/>
<path d="M159.3 3.2998C159.8 3.2998 160.1 3.4998 160.5 3.7998C160.8 4.0998 161 4.4998 161 4.9998C161 5.4998 160.8 5.7998 160.5 6.1998C160.2 6.4998 159.8 6.6998 159.3 6.6998C158.9 6.6998 158.5 6.4998 158.1 6.1998C157.8 5.8998 157.6 5.4998 157.6 4.9998C157.6 4.4998 157.8 4.0998 158.1 3.7998C158.5 3.4998 158.9 3.2998 159.3 3.2998ZM158.3 9.6998H160.3V25.2998H158.3V9.6998Z" fill="white"/>
<path d="M163.199 9.69971H174.699L165.799 23.5997H174.399V25.3997H162.399L171.199 11.4997H163.199V9.69971Z" fill="white"/>
<path d="M190.2 20.1997L191.9 21.0997C191.3 22.1997 190.7 23.0997 190 23.6997C189.3 24.3997 188.5 24.8997 187.5 25.1997C186.6 25.4997 185.6 25.6997 184.4 25.6997C181.8 25.6997 179.9 24.8997 178.4 23.1997C177 21.4997 176.2 19.5997 176.2 17.4997C176.2 15.4997 176.8 13.6997 178 12.1997C179.5 10.1997 181.6 9.19971 184.2 9.19971C186.9 9.19971 189 10.1997 190.6 12.1997C191.7 13.5997 192.3 15.3997 192.3 17.4997H178.2C178.2 19.2997 178.8 20.7997 179.9 21.9997C181 23.1997 182.4 23.6997 184.1 23.6997C184.9 23.6997 185.7 23.5997 186.4 23.2997C187.1 22.9997 187.8 22.6997 188.3 22.1997C189 21.8997 189.6 21.1997 190.2 20.1997ZM190.2 15.9997C189.9 14.8997 189.5 14.0997 189 13.3997C188.5 12.7997 187.8 12.1997 187 11.7997C186.2 11.3997 185.3 11.1997 184.3 11.1997C182.8 11.1997 181.4 11.6997 180.3 12.6997C179.5 13.3997 178.9 14.4997 178.5 15.8997H190.2V15.9997Z" fill="white"/>
<path d="M198.4 22.1997C198.9 22.1997 199.3 22.3997 199.7 22.6997C200 22.9997 200.2 23.4997 200.2 23.9997C200.2 24.4997 200 24.8997 199.7 25.2997C199.4 25.5997 198.9 25.7997 198.4 25.7997C197.9 25.7997 197.5 25.5997 197.1 25.2997C196.8 24.8997 196.6 24.4997 196.6 23.9997C196.6 23.4997 196.8 23.0997 197.1 22.6997C197.5 22.3997 197.9 22.1997 198.4 22.1997Z" fill="white"/>
<path d="M213.3 4.19971L223.2 25.3997H220.9L217.6 18.3997H208.5L205.2 25.3997H202.8L212.8 4.19971H213.3ZM213 8.69971L209.4 16.3997H216.6L213 8.69971Z" fill="white"/>
<path d="M241.699 3.69971V25.3997H239.699V22.6997C238.899 23.6997 237.899 24.4997 236.899 24.9997C235.899 25.4997 234.699 25.7997 233.499 25.7997C231.299 25.7997 229.399 24.9997 227.799 23.3997C226.199 21.7997 225.399 19.7997 225.399 17.4997C225.399 15.1997 226.199 13.2997 227.799 11.6997C229.399 10.0997 231.299 9.29971 233.499 9.29971C234.799 9.29971 235.899 9.59971 236.999 10.0997C238.099 10.5997 238.999 11.4997 239.699 12.5997V3.69971H241.699ZM233.699 11.2997C232.599 11.2997 231.499 11.5997 230.599 12.0997C229.699 12.5997 228.899 13.3997 228.299 14.3997C227.699 15.3997 227.499 16.3997 227.499 17.5997C227.499 18.6997 227.799 19.7997 228.299 20.7997C228.899 21.7997 229.599 22.5997 230.599 23.0997C231.599 23.6997 232.599 23.8997 233.699 23.8997C234.799 23.8997 235.799 23.5997 236.799 23.0997C237.799 22.5997 238.499 21.7997 239.099 20.7997C239.599 19.8997 239.899 18.7997 239.899 17.5997C239.899 15.7997 239.299 14.2997 238.099 13.0997C236.899 11.8997 235.399 11.2997 233.699 11.2997Z" fill="white"/>
<path d="M56.658 5.16666C53.8665 2.37666 50.0411 0.82666 46.1123 0.82666C42.1835 0.82666 38.358 2.37666 35.5665 5.16666L28.4326 12.2967L30.6038 14.4667L37.7377 7.33666C40.0123 5.06333 42.9072 3.82333 46.1123 3.82333C49.3174 3.82333 52.2123 5.06333 54.4869 7.33666C56.7614 9.60999 58.0021 12.5033 58.0021 15.7067C58.0021 18.91 56.7614 21.8033 54.4869 24.0767C52.2123 26.35 49.3174 27.59 46.1123 27.59C42.9072 27.59 40.0123 26.35 37.7377 24.0767L33.8089 20.15L31.6377 22.32L35.5665 26.2467C38.358 29.0367 42.1835 30.5867 46.1123 30.5867C50.0411 30.5867 53.8665 29.0367 56.658 26.2467C59.4496 23.4567 61.0004 19.6333 61.0004 15.7067C61.0004 11.78 59.4496 7.95666 56.658 5.16666Z" fill="white"/>
<path d="M30.5 16.8433L23.2627 24.0767C20.9881 26.35 18.0932 27.59 14.8881 27.59C11.6831 27.59 8.78814 26.35 6.51356 24.0767C4.23898 21.8033 2.99831 18.91 2.99831 15.7067C2.99831 12.5033 4.23898 9.60999 6.51356 7.33666C8.78814 5.06333 11.6831 3.82333 14.8881 3.82333C18.0932 3.82333 20.9881 5.06333 23.2627 7.33666L27.0881 11.16L29.2593 8.98999L25.4339 5.16666C22.6424 2.37666 18.8169 0.82666 14.8881 0.82666C10.8559 0.82666 7.1339 2.37666 4.34237 5.16666C1.55085 7.95666 0 11.78 0 15.7067C0 19.6333 1.55085 23.4567 4.34237 26.2467C7.1339 29.0367 10.9593 30.5867 14.8881 30.5867C18.9203 30.5867 22.6424 29.0367 25.4339 26.2467L32.6712 19.0133L30.5 16.8433Z" fill="white"/>
<path d="M27.0883 17.8767L29.2594 15.7067L22.1255 8.57675C20.2645 6.71675 17.6798 5.58008 14.9916 5.58008C12.3035 5.58008 9.71876 6.61341 7.85774 8.57675C3.92893 12.5034 3.92893 18.9101 7.85774 22.8367C9.71876 24.6967 12.3035 25.8334 14.9916 25.8334C17.6798 25.8334 20.2645 24.8001 22.1255 22.8367L25.951 19.0134L23.7798 16.8434L19.9544 20.6667C18.6103 22.0101 16.8527 22.7334 14.9916 22.7334C13.1306 22.7334 11.373 22.0101 10.0289 20.6667C7.34079 17.9801 7.34079 13.4334 10.0289 10.7467C11.373 9.40341 13.1306 8.68008 14.9916 8.68008C16.8527 8.68008 18.6103 9.40341 19.9544 10.7467L27.0883 17.8767Z" fill="white"/>
<path d="M53.0388 8.67995C51.1778 6.81995 48.593 5.78662 46.0083 5.78662C43.3201 5.78662 40.8388 6.81995 38.9778 8.67995L35.2557 12.4L37.4269 14.57L41.149 10.85C43.8371 8.16329 48.1795 8.16329 50.8676 10.85C53.5557 13.5366 53.5557 17.8766 50.8676 20.5633C49.5235 21.9066 47.8693 22.63 46.0083 22.63C44.1473 22.63 42.3896 21.9066 41.149 20.6666L34.1185 13.5366L31.9473 15.7066L38.9778 22.8366C40.8388 24.6966 43.4235 25.73 46.0083 25.73C48.6964 25.73 51.1778 24.6966 53.0388 22.8366C54.8998 20.9766 55.9337 18.3933 55.9337 15.81C55.9337 13.2266 54.8998 10.54 53.0388 8.67995Z" fill="white"/>
</svg>
