<svg width="61" height="31" viewBox="0 0 61 31" fill="none" xmlns="http://www.w3.org/2000/svg">
<path d="M56.6571 5.16666C53.8655 2.37666 50.0401 0.82666 46.1113 0.82666C42.1825 0.82666 38.3571 2.37666 35.5655 5.16666L28.4316 12.2967L30.6028 14.4667L37.7367 7.33666C40.0113 5.06333 42.9062 3.82333 46.1113 3.82333C49.3164 3.82333 52.2113 5.06333 54.4859 7.33666C56.7605 9.60999 58.0011 12.5033 58.0011 15.7067C58.0011 18.91 56.7605 21.8033 54.4859 24.0767C52.2113 26.35 49.3164 27.59 46.1113 27.59C42.9062 27.59 40.0113 26.35 37.7367 24.0767L33.8079 20.15L31.6367 22.32L35.5655 26.2467C38.3571 29.0367 42.1825 30.5867 46.1113 30.5867C50.0401 30.5867 53.8655 29.0367 56.6571 26.2467C59.4486 23.4567 60.9994 19.6333 60.9994 15.7067C60.9994 11.78 59.4486 7.95666 56.6571 5.16666Z" fill="#1E6CEB"/>
<path d="M30.5 16.8433L23.2627 24.0767C20.9881 26.35 18.0932 27.59 14.8881 27.59C11.6831 27.59 8.78814 26.35 6.51356 24.0767C4.23898 21.8033 2.99831 18.91 2.99831 15.7067C2.99831 12.5033 4.23898 9.60999 6.51356 7.33666C8.78814 5.06333 11.6831 3.82333 14.8881 3.82333C18.0932 3.82333 20.9881 5.06333 23.2627 7.33666L27.0881 11.16L29.2593 8.98999L25.4339 5.16666C22.6424 2.37666 18.8169 0.82666 14.8881 0.82666C10.8559 0.82666 7.1339 2.37666 4.34237 5.16666C1.55085 7.95666 0 11.78 0 15.7067C0 19.6333 1.55085 23.4567 4.34237 26.2467C7.1339 29.0367 10.9593 30.5867 14.8881 30.5867C18.9203 30.5867 22.6424 29.0367 25.4339 26.2467L32.6712 19.0133L30.5 16.8433Z" fill="#1E6CEB"/>
<path d="M27.0873 17.8767L29.2585 15.7067L22.1246 8.57675C20.2635 6.71675 17.6788 5.58008 14.9907 5.58008C12.3025 5.58008 9.71778 6.61341 7.85677 8.57675C3.92795 12.5034 3.92795 18.9101 7.85677 22.8367C9.71778 24.6967 12.3025 25.8334 14.9907 25.8334C17.6788 25.8334 20.2635 24.8001 22.1246 22.8367L25.95 19.0134L23.7788 16.8434L19.9534 20.6667C18.6093 22.0101 16.8517 22.7334 14.9907 22.7334C13.1296 22.7334 11.372 22.0101 10.028 20.6667C7.33982 17.9801 7.33982 13.4334 10.028 10.7467C11.372 9.40341 13.1296 8.68008 14.9907 8.68008C16.8517 8.68008 18.6093 9.40341 19.9534 10.7467L27.0873 17.8767Z" fill="#1E6CEB"/>
<path d="M53.0388 8.67995C51.1778 6.81995 48.593 5.78662 46.0083 5.78662C43.3201 5.78662 40.8388 6.81995 38.9778 8.67995L35.2557 12.4L37.4269 14.57L41.149 10.85C43.8371 8.16329 48.1795 8.16329 50.8676 10.85C53.5557 13.5366 53.5557 17.8766 50.8676 20.5633C49.5235 21.9066 47.8693 22.63 46.0083 22.63C44.1473 22.63 42.3896 21.9066 41.149 20.6666L34.1185 13.5366L31.9473 15.7066L38.9778 22.8366C40.8388 24.6966 43.4235 25.73 46.0083 25.73C48.6964 25.73 51.1778 24.6966 53.0388 22.8366C54.8998 20.9766 55.9337 18.3933 55.9337 15.81C55.9337 13.2266 54.8998 10.54 53.0388 8.67995Z" fill="#1E6CEB"/>
</svg>
